<svg xmlns="http://www.w3.org/2000/svg" xmlns:xlink="http://www.w3.org/1999/xlink" width="1024" zoomAndPan="magnify" viewBox="0 0 768 767.999994" height="1024" preserveAspectRatio="xMidYMid meet" version="1.2"><defs><clipPath id="fa484db5cb"><path d="M 140.015625 229.375 L 628 229.375 L 628 407 L 140.015625 407 Z M 140.015625 229.375 "/></clipPath></defs><g id="cc349d1f55"><path style=" stroke:none;fill-rule:nonzero;fill:#1a1a1a;fill-opacity:1;" d="M 330.785156 422.613281 C 365.269531 419.085938 406.289062 421.753906 440.507812 429.75 C 460.425781 434.402344 492.417969 444.363281 502.214844 461.773438 C 502.15625 460.777344 501.949219 459.8125 501.570312 458.886719 C 502.175781 445.71875 502.828125 431.46875 503.492188 416.855469 C 503.472656 416.859375 503.453125 416.863281 503.4375 416.867188 C 503.964844 405.269531 504.5 393.464844 505.023438 381.765625 C 503.164062 369.53125 480.609375 356.902344 445.960938 348.726562 C 411.972656 340.703125 371.191406 337.851562 336.871094 341.097656 C 299.011719 344.675781 272.960938 355.117188 263.355469 370.53125 C 263.085938 371.980469 262.503906 375.476562 262.457031 378.953125 C 262.339844 387.429688 262.179688 397.742188 261.984375 408.207031 C 261.933594 408.191406 261.878906 408.175781 261.828125 408.15625 C 261.507812 425.078125 261.160156 438.242188 260.816406 446.714844 C 271.914062 436.554688 292.546875 426.519531 330.785156 422.613281 "/><g clip-rule="nonzero" clip-path="url(#fa484db5cb)"><path style=" stroke:none;fill-rule:nonzero;fill:#1a1a1a;fill-opacity:1;" d="M 625.277344 341.375 L 381.78125 229.8125 C 380.839844 229.378906 379.765625 229.378906 378.824219 229.8125 L 142.316406 337.925781 C 140.945312 338.550781 140.050781 339.984375 140.03125 341.578125 C 140.015625 343.175781 140.878906 344.628906 142.238281 345.289062 L 254.089844 399.710938 C 254.214844 392.707031 254.332031 385.199219 254.441406 377.214844 C 254.511719 371.753906 255.636719 366.507812 255.683594 366.285156 L 255.839844 365.578125 L 256.199219 364.96875 C 263.734375 352.179688 283.722656 335.898438 336.164062 330.941406 C 371.253906 327.625 412.945312 330.539062 447.691406 338.738281 C 470.917969 344.21875 510.296875 356.792969 513.023438 379.398438 L 513.066406 379.773438 L 513.050781 380.152344 C 512.652344 389.007812 512.25 397.925781 511.847656 406.769531 L 625.417969 348.707031 C 626.75 348.027344 627.585938 346.574219 627.558594 344.992188 C 627.527344 343.414062 626.636719 342 625.277344 341.375 "/></g><path style=" stroke:none;fill-rule:nonzero;fill:#1a1a1a;fill-opacity:1;" d="M 204.035156 438.644531 L 196.511719 438.507812 L 198.046875 354.128906 L 205.570312 354.265625 L 204.035156 438.644531 "/><path style=" stroke:none;fill-rule:evenodd;fill:#1a1a1a;fill-opacity:1;" d="M 194.746094 448.9375 C 181.230469 467.152344 176.648438 492.042969 178.921875 522.101562 C 198.167969 538.320312 212.683594 537.761719 223.5625 524.328125 C 223.769531 466.414062 215.242188 437.640625 194.746094 448.9375 "/><path style=" stroke:none;fill-rule:evenodd;fill:#1a1a1a;fill-opacity:1;" d="M 191.488281 530.691406 L 189.90625 471.589844 L 184.261719 526.265625 C 186.765625 528.023438 189.15625 529.507812 191.488281 530.691406 "/><path style=" stroke:none;fill-rule:evenodd;fill:#1a1a1a;fill-opacity:1;" d="M 201.589844 498.1875 L 201.738281 523.28125 L 198.03125 490.488281 L 200.199219 532.277344 C 202.582031 532.988281 204.835938 533.390625 206.980469 533.550781 L 207.199219 533.519531 L 201.589844 498.1875 "/><path style=" stroke:none;fill-rule:evenodd;fill:#1a1a1a;fill-opacity:1;" d="M 211.160156 476.582031 L 211.71875 533.226562 C 213.164062 532.726562 214.578125 532.058594 215.9375 531.222656 L 217.300781 503.84375 L 213.589844 501.992188 L 211.160156 476.582031 "/><path style=" stroke:none;fill-rule:evenodd;fill:#1a1a1a;fill-opacity:1;" d="M 202.980469 426.367188 C 210.78125 426.738281 216.789062 433.035156 216.414062 440.417969 C 216.0625 447.804688 209.441406 453.464844 201.644531 453.09375 C 193.851562 452.691406 187.808594 446.398438 188.183594 439.011719 C 188.5625 431.628906 195.15625 425.96875 202.980469 426.367188 "/></g></svg>