<svg xmlns="http://www.w3.org/2000/svg" xmlns:xlink="http://www.w3.org/1999/xlink" width="1024" zoomAndPan="magnify" viewBox="0 0 768 767.999994" height="1024" preserveAspectRatio="xMidYMid meet" version="1.2"><defs><clipPath id="c56ca25959"><path d="M 174.375 206.078125 L 593.625 206.078125 L 593.625 419 L 174.375 419 Z M 174.375 206.078125 "/></clipPath><clipPath id="a2c9819bbe"><path d="M 191 428 L 577 428 L 577 561.578125 L 191 561.578125 Z M 191 428 "/></clipPath></defs><g id="36d0920673"><g clip-rule="nonzero" clip-path="url(#c56ca25959)"><path style=" stroke:none;fill-rule:nonzero;fill:#1a1a1a;fill-opacity:1;" d="M 578.03125 272.175781 L 503.808594 272.175781 L 503.808594 241.796875 C 503.808594 222.101562 487.738281 206.078125 467.984375 206.078125 L 299.707031 206.078125 C 279.957031 206.078125 263.886719 222.101562 263.886719 241.796875 L 263.886719 272.175781 L 189.660156 272.175781 C 181.359375 272.175781 174.636719 277.558594 174.636719 284.15625 L 174.636719 395.675781 C 174.636719 408.53125 187.714844 418.953125 203.832031 418.953125 L 344.304688 418.953125 L 344.304688 399.035156 C 344.304688 392.070312 349.976562 386.398438 356.941406 386.398438 L 410.753906 386.398438 C 417.71875 386.398438 423.390625 392.070312 423.390625 399.035156 L 423.390625 418.953125 L 563.863281 418.953125 C 579.980469 418.953125 593.054688 408.53125 593.054688 395.675781 L 593.054688 284.15625 C 593.054688 277.558594 586.335938 272.175781 578.03125 272.175781 Z M 288.234375 272.175781 L 288.234375 241.796875 C 288.234375 235.527344 293.378906 230.429688 299.707031 230.429688 L 467.984375 230.429688 C 474.3125 230.429688 479.457031 235.527344 479.457031 241.796875 L 479.457031 272.175781 Z M 288.234375 272.175781 "/></g><g clip-rule="nonzero" clip-path="url(#a2c9819bbe)"><path style=" stroke:none;fill-rule:nonzero;fill:#1a1a1a;fill-opacity:1;" d="M 423.390625 438.871094 C 423.390625 445.835938 417.71875 451.507812 410.753906 451.507812 L 356.941406 451.507812 C 349.976562 451.507812 344.304688 445.835938 344.304688 438.871094 L 344.304688 428.183594 L 191.511719 428.183594 L 191.511719 539.359375 C 191.511719 551.65625 200.738281 561.589844 212.136719 561.589844 L 555.558594 561.589844 C 566.953125 561.589844 576.183594 551.65625 576.183594 539.359375 L 576.183594 428.183594 L 423.390625 428.183594 Z M 309.824219 540.019531 L 232.660156 540.019531 C 230.324219 540.019531 228.449219 538.144531 228.449219 535.804688 C 228.449219 533.46875 230.324219 531.570312 232.660156 531.570312 L 309.824219 531.570312 C 312.164062 531.570312 314.039062 533.46875 314.039062 535.804688 C 314.039062 538.144531 312.164062 540.019531 309.824219 540.019531 Z M 309.824219 540.019531 "/></g><path style=" stroke:none;fill-rule:nonzero;fill:#1a1a1a;fill-opacity:1;" d="M 410.753906 444.203125 C 413.699219 444.203125 416.085938 441.792969 416.085938 438.871094 L 416.085938 399.035156 C 416.085938 396.089844 413.699219 393.703125 410.753906 393.703125 L 356.941406 393.703125 C 353.996094 393.703125 351.609375 396.089844 351.609375 399.035156 L 351.609375 438.871094 C 351.609375 441.792969 353.996094 444.203125 356.941406 444.203125 Z M 410.753906 444.203125 "/></g></svg>