<svg xmlns="http://www.w3.org/2000/svg" xmlns:xlink="http://www.w3.org/1999/xlink" width="1024" zoomAndPan="magnify" viewBox="0 0 768 767.999994" height="1024" preserveAspectRatio="xMidYMid meet" version="1.2"><defs><clipPath id="b1266446d8"><path d="M 186.433594 153.601562 L 563.683594 153.601562 L 563.683594 531 L 186.433594 531 Z M 186.433594 153.601562 "/></clipPath></defs><g id="f778c55263"><g clip-rule="nonzero" clip-path="url(#b1266446d8)"><path style=" stroke:none;fill-rule:nonzero;fill:#a5ccff;fill-opacity:1;" d="M 375.058594 153.71875 C 371.96875 153.722656 368.882812 153.800781 365.796875 153.957031 C 362.714844 154.113281 359.632812 154.34375 356.5625 154.648438 C 353.488281 154.953125 350.425781 155.335938 347.371094 155.789062 C 344.316406 156.246094 341.273438 156.777344 338.246094 157.382812 C 335.21875 157.988281 332.207031 158.667969 329.210938 159.417969 C 326.214844 160.171875 323.238281 160.996094 320.285156 161.894531 C 317.332031 162.792969 314.398438 163.765625 311.492188 164.808594 C 308.585938 165.851562 305.707031 166.960938 302.851562 168.144531 C 300 169.328125 297.179688 170.582031 294.386719 171.902344 C 291.597656 173.226562 288.839844 174.613281 286.117188 176.070312 C 283.394531 177.527344 280.707031 179.050781 278.058594 180.640625 C 275.410156 182.230469 272.800781 183.882812 270.234375 185.597656 C 267.667969 187.316406 265.144531 189.09375 262.664062 190.933594 C 260.183594 192.773438 257.75 194.671875 255.363281 196.632812 C 252.976562 198.59375 250.636719 200.609375 248.351562 202.683594 C 246.0625 204.757812 243.824219 206.886719 241.640625 209.070312 C 239.457031 211.253906 237.328125 213.492188 235.253906 215.777344 C 233.179688 218.066406 231.164062 220.40625 229.203125 222.792969 C 227.246094 225.179688 225.34375 227.613281 223.503906 230.09375 C 221.664062 232.574219 219.886719 235.097656 218.171875 237.664062 C 216.453125 240.230469 214.800781 242.839844 213.210938 245.488281 C 211.625 248.136719 210.101562 250.820312 208.644531 253.542969 C 207.1875 256.265625 205.796875 259.023438 204.476562 261.816406 C 203.152344 264.605469 201.902344 267.429688 200.71875 270.28125 C 199.535156 273.132812 198.421875 276.015625 197.378906 278.921875 C 196.335938 281.828125 195.367188 284.757812 194.46875 287.714844 C 193.570312 290.667969 192.742188 293.644531 191.992188 296.636719 C 191.238281 299.632812 190.558594 302.644531 189.953125 305.675781 C 189.347656 308.703125 188.816406 311.742188 188.363281 314.796875 C 187.90625 317.851562 187.523438 320.917969 187.21875 323.988281 C 186.914062 327.0625 186.683594 330.140625 186.527344 333.226562 C 186.375 336.3125 186.292969 339.398438 186.289062 342.484375 C 196.660156 592.910156 553.492188 592.835938 563.824219 342.484375 C 563.820312 339.394531 563.742188 336.308594 563.585938 333.226562 C 563.429688 330.140625 563.199219 327.0625 562.894531 323.988281 C 562.589844 320.914062 562.207031 317.851562 561.753906 314.796875 C 561.296875 311.742188 560.765625 308.703125 560.160156 305.671875 C 559.554688 302.644531 558.875 299.632812 558.125 296.636719 C 557.371094 293.640625 556.546875 290.667969 555.644531 287.710938 C 554.746094 284.757812 553.777344 281.828125 552.734375 278.917969 C 551.691406 276.011719 550.578125 273.132812 549.394531 270.28125 C 548.210938 267.429688 546.960938 264.605469 545.636719 261.816406 C 544.316406 259.023438 542.925781 256.265625 541.46875 253.542969 C 540.011719 250.820312 538.488281 248.136719 536.902344 245.488281 C 535.3125 242.839844 533.660156 240.230469 531.945312 237.664062 C 530.226562 235.09375 528.449219 232.570312 526.609375 230.089844 C 524.769531 227.613281 522.867188 225.179688 520.910156 222.789062 C 518.949219 220.402344 516.933594 218.066406 514.859375 215.777344 C 512.785156 213.488281 510.65625 211.253906 508.472656 209.070312 C 506.289062 206.886719 504.050781 204.757812 501.761719 202.683594 C 499.476562 200.609375 497.136719 198.59375 494.75 196.632812 C 492.363281 194.671875 489.929688 192.773438 487.449219 190.933594 C 484.96875 189.09375 482.445312 187.316406 479.878906 185.597656 C 477.3125 183.882812 474.703125 182.230469 472.054688 180.640625 C 469.40625 179.050781 466.722656 177.527344 463.996094 176.070312 C 461.273438 174.613281 458.519531 173.226562 455.726562 171.902344 C 452.933594 170.582031 450.113281 169.328125 447.261719 168.144531 C 444.410156 166.960938 441.527344 165.847656 438.621094 164.808594 C 435.714844 163.765625 432.785156 162.792969 429.828125 161.894531 C 426.875 160.996094 423.898438 160.171875 420.902344 159.417969 C 417.910156 158.667969 414.898438 157.988281 411.867188 157.382812 C 408.839844 156.777344 405.796875 156.246094 402.742188 155.789062 C 399.6875 155.335938 396.625 154.953125 393.550781 154.648438 C 390.480469 154.34375 387.402344 154.113281 384.316406 153.957031 C 381.230469 153.800781 378.144531 153.722656 375.058594 153.71875 Z M 268.039062 259.199219 L 482.074219 259.199219 C 482.53125 259.199219 482.976562 259.269531 483.414062 259.40625 C 483.847656 259.546875 484.25 259.75 484.625 260.011719 C 484.996094 260.277344 485.316406 260.59375 485.589844 260.957031 C 485.867188 261.324219 486.078125 261.722656 486.226562 262.152344 C 486.375 262.585938 486.457031 263.027344 486.46875 263.484375 C 486.480469 263.941406 486.417969 264.386719 486.292969 264.828125 C 486.164062 265.265625 485.972656 265.671875 485.714844 266.050781 C 485.460938 266.429688 485.152344 266.761719 484.792969 267.042969 L 378.746094 350.574219 C 378.214844 350.980469 377.636719 351.289062 377.003906 351.503906 C 376.371094 351.71875 375.722656 351.824219 375.054688 351.824219 C 374.390625 351.824219 373.742188 351.71875 373.109375 351.503906 C 372.476562 351.289062 371.898438 350.980469 371.367188 350.574219 L 265.320312 267.042969 C 264.960938 266.761719 264.652344 266.429688 264.398438 266.050781 C 264.144531 265.671875 263.949219 265.265625 263.824219 264.828125 C 263.695312 264.386719 263.636719 263.941406 263.648438 263.484375 C 263.65625 263.027344 263.738281 262.585938 263.886719 262.152344 C 264.035156 261.722656 264.25 261.324219 264.523438 260.957031 C 264.796875 260.59375 265.117188 260.277344 265.492188 260.011719 C 265.863281 259.75 266.265625 259.546875 266.699219 259.40625 C 267.136719 259.269531 267.582031 259.199219 268.039062 259.199219 Z M 505.933594 415.234375 C 505.933594 415.925781 505.867188 416.609375 505.734375 417.289062 C 505.597656 417.96875 505.398438 418.628906 505.132812 419.265625 C 504.867188 419.90625 504.542969 420.511719 504.160156 421.089844 C 503.773438 421.664062 503.339844 422.195312 502.847656 422.683594 C 502.359375 423.175781 501.828125 423.609375 501.253906 423.996094 C 500.675781 424.378906 500.070312 424.703125 499.429688 424.96875 C 498.789062 425.234375 498.132812 425.433594 497.453125 425.570312 C 496.773438 425.703125 496.089844 425.773438 495.398438 425.773438 L 254.714844 425.773438 C 254.023438 425.773438 253.339844 425.703125 252.660156 425.570312 C 251.980469 425.433594 251.324219 425.234375 250.683594 424.96875 C 250.042969 424.703125 249.4375 424.378906 248.863281 423.996094 C 248.285156 423.609375 247.753906 423.175781 247.265625 422.683594 C 246.777344 422.195312 246.339844 421.664062 245.953125 421.089844 C 245.570312 420.511719 245.246094 419.90625 244.980469 419.265625 C 244.714844 418.628906 244.515625 417.96875 244.382812 417.289062 C 244.246094 416.609375 244.179688 415.925781 244.179688 415.234375 L 244.179688 274.554688 C 244.179688 274.140625 244.234375 273.738281 244.347656 273.339844 C 244.464844 272.945312 244.628906 272.574219 244.847656 272.222656 C 245.066406 271.875 245.328125 271.5625 245.636719 271.285156 C 245.941406 271.011719 246.28125 270.78125 246.652344 270.601562 C 247.023438 270.421875 247.414062 270.296875 247.820312 270.226562 C 248.226562 270.15625 248.632812 270.144531 249.042969 270.1875 C 249.453125 270.230469 249.847656 270.332031 250.230469 270.488281 C 250.613281 270.644531 250.964844 270.847656 251.289062 271.105469 L 363.992188 359.855469 C 364.769531 360.488281 365.59375 361.046875 366.464844 361.535156 C 367.335938 362.027344 368.246094 362.4375 369.1875 362.773438 C 370.128906 363.105469 371.09375 363.359375 372.078125 363.527344 C 373.066406 363.699219 374.058594 363.785156 375.058594 363.785156 C 376.058594 363.785156 377.050781 363.699219 378.035156 363.527344 C 379.023438 363.359375 379.984375 363.105469 380.929688 362.773438 C 381.871094 362.4375 382.777344 362.027344 383.648438 361.535156 C 384.523438 361.046875 385.347656 360.488281 386.121094 359.855469 L 498.824219 271.105469 C 499.148438 270.847656 499.503906 270.644531 499.882812 270.488281 C 500.265625 270.332031 500.660156 270.230469 501.070312 270.1875 C 501.480469 270.144531 501.890625 270.15625 502.296875 270.226562 C 502.703125 270.296875 503.089844 270.421875 503.460938 270.601562 C 503.832031 270.78125 504.171875 271.011719 504.476562 271.285156 C 504.785156 271.5625 505.046875 271.875 505.265625 272.222656 C 505.484375 272.574219 505.652344 272.945312 505.765625 273.339844 C 505.878906 273.738281 505.933594 274.140625 505.933594 274.554688 Z M 505.933594 415.234375 "/></g></g></svg>