<svg xmlns="http://www.w3.org/2000/svg" xmlns:xlink="http://www.w3.org/1999/xlink" width="1024" zoomAndPan="magnify" viewBox="0 0 768 767.999994" height="1024" preserveAspectRatio="xMidYMid meet" version="1.2"><defs><clipPath id="cec5690bbf"><path d="M 195.226562 165.90625 L 572.773438 165.90625 L 572.773438 543.453125 L 195.226562 543.453125 Z M 195.226562 165.90625 "/></clipPath><clipPath id="27d4f24f20"><path d="M 384 165.90625 C 279.742188 165.90625 195.226562 250.421875 195.226562 354.679688 C 195.226562 458.9375 279.742188 543.453125 384 543.453125 C 488.257812 543.453125 572.773438 458.9375 572.773438 354.679688 C 572.773438 250.421875 488.257812 165.90625 384 165.90625 Z M 384 165.90625 "/></clipPath><clipPath id="81567f5295"><path d="M 271.800781 235.0625 L 496.050781 235.0625 L 496.050781 459.3125 L 271.800781 459.3125 Z M 271.800781 235.0625 "/></clipPath></defs><g id="36c8f0d5fb"><rect x="0" width="768" y="0" height="767.999994" style="fill:#ffffff;fill-opacity:1;stroke:none;"/><rect x="0" width="768" y="0" height="767.999994" style="fill:#f8f9fa;fill-opacity:1;stroke:none;"/><g clip-rule="nonzero" clip-path="url(#cec5690bbf)"><g clip-rule="nonzero" clip-path="url(#27d4f24f20)"><path style=" stroke:none;fill-rule:nonzero;fill:#a5ccff;fill-opacity:1;" d="M 195.226562 165.90625 L 572.773438 165.90625 L 572.773438 543.453125 L 195.226562 543.453125 Z M 195.226562 165.90625 "/></g></g><g clip-rule="nonzero" clip-path="url(#81567f5295)"><path style=" stroke:none;fill-rule:evenodd;fill:#f8f9fa;fill-opacity:1;" d="M 496.050781 459.3125 L 451.199219 459.3125 L 451.199219 380.835938 C 451.199219 359.308594 441.707031 347.296875 424.671875 347.296875 C 406.140625 347.296875 395.136719 359.816406 395.136719 380.835938 L 395.136719 459.3125 L 350.289062 459.3125 L 350.289062 313.550781 L 395.136719 313.550781 L 395.136719 329.945312 C 395.136719 329.945312 409.210938 305.253906 440.917969 305.253906 C 472.640625 305.253906 496.050781 324.605469 496.050781 364.664062 Z M 299.183594 290.238281 C 284.058594 290.238281 271.800781 277.882812 271.800781 262.648438 C 271.800781 247.421875 284.058594 235.0625 299.183594 235.0625 C 314.296875 235.0625 326.550781 247.421875 326.550781 262.648438 C 326.5625 277.882812 314.296875 290.238281 299.183594 290.238281 Z M 271.800781 459.3125 L 327.863281 459.3125 L 327.863281 313.550781 L 271.800781 313.550781 Z M 271.800781 459.3125 "/></g></g></svg>