<svg xmlns="http://www.w3.org/2000/svg" xmlns:xlink="http://www.w3.org/1999/xlink" width="1024" zoomAndPan="magnify" viewBox="0 0 768 767.999994" height="1024" preserveAspectRatio="xMidYMid meet" version="1.2"><defs><clipPath id="cac3048b6c"><path d="M 195.226562 195.226562 L 572.476562 195.226562 L 572.476562 572.476562 L 195.226562 572.476562 Z M 195.226562 195.226562 "/></clipPath></defs><g id="a67d5e56d5"><path style=" stroke:none;fill-rule:nonzero;fill:#a5ccff;fill-opacity:1;" d="M 383.882812 278.226562 C 358.871094 278.226562 338.589844 298.503906 338.589844 323.519531 C 338.589844 348.53125 358.871094 368.8125 383.882812 368.8125 C 408.898438 368.8125 429.175781 348.53125 429.175781 323.519531 C 429.175781 298.503906 408.898438 278.226562 383.882812 278.226562 "/><g clip-rule="nonzero" clip-path="url(#cac3048b6c)"><path style=" stroke:none;fill-rule:nonzero;fill:#a5ccff;fill-opacity:1;" d="M 383.882812 499.398438 C 383.882812 499.398438 298.882812 383.730469 298.882812 336.78125 C 298.882812 289.835938 336.9375 251.777344 383.882812 251.777344 C 430.828125 251.777344 468.886719 289.835938 468.886719 336.78125 C 468.886719 383.730469 383.882812 499.398438 383.882812 499.398438 Z M 383.882812 195.238281 C 279.699219 195.238281 195.238281 279.699219 195.238281 383.882812 C 195.238281 488.070312 279.699219 572.527344 383.882812 572.527344 C 488.070312 572.527344 572.527344 488.070312 572.527344 383.882812 C 572.527344 279.699219 488.070312 195.238281 383.882812 195.238281 "/></g></g></svg>