<svg xmlns="http://www.w3.org/2000/svg" xmlns:xlink="http://www.w3.org/1999/xlink" width="500" zoomAndPan="magnify" viewBox="0 0 375 374.999991" height="500" preserveAspectRatio="xMidYMid meet" version="1.0"><defs><g/><clipPath id="13c162447f"><path d="M 64.46875 60.050781 L 312.910156 60.050781 L 312.910156 308.488281 L 64.46875 308.488281 Z M 64.46875 60.050781 " clip-rule="nonzero"/></clipPath><clipPath id="b5065bdfd2"><path d="M 188.6875 60.050781 C 120.082031 60.050781 64.46875 115.664062 64.46875 184.269531 C 64.46875 252.875 120.082031 308.488281 188.6875 308.488281 C 257.292969 308.488281 312.910156 252.875 312.910156 184.269531 C 312.910156 115.664062 257.292969 60.050781 188.6875 60.050781 Z M 188.6875 60.050781 " clip-rule="nonzero"/></clipPath><clipPath id="34b347395b"><path d="M 53 73 L 319 73 L 319 291 L 53 291 Z M 53 73 " clip-rule="nonzero"/></clipPath><clipPath id="247acfa684"><path d="M 40.320312 94.007812 L 312.992188 62.394531 L 337.609375 274.722656 L 64.933594 306.335938 Z M 40.320312 94.007812 " clip-rule="nonzero"/></clipPath><clipPath id="a6f7ba3181"><path d="M 40.320312 94.007812 L 312.992188 62.394531 L 337.609375 274.722656 L 64.933594 306.335938 Z M 40.320312 94.007812 " clip-rule="nonzero"/></clipPath></defs><g clip-path="url(#13c162447f)"><g clip-path="url(#b5065bdfd2)"><path fill="#efc6fd" d="M 64.46875 60.050781 L 312.910156 60.050781 L 312.910156 308.488281 L 64.46875 308.488281 Z M 64.46875 60.050781 " fill-opacity="1" fill-rule="nonzero"/></g></g><g clip-path="url(#34b347395b)"><g clip-path="url(#247acfa684)"><g clip-path="url(#a6f7ba3181)"><path fill="#181818" d="M 203.757812 76.367188 C 213.445312 75.246094 222.492188 74.785156 231.554688 75.042969 C 233.589844 75.070312 235.75 75.082031 237.847656 75.101562 C 250.027344 75.128906 262.597656 75.175781 274.21875 78.28125 C 287.316406 81.738281 297.089844 88.65625 304.15625 99.359375 C 306.375 102.699219 308.375 106.394531 310 110.265625 C 318.277344 130.253906 319.460938 155.710938 313.535156 185.921875 C 311.523438 192.832031 308.832031 199.558594 305.695312 205.8125 C 284.5 252.78125 246.457031 283.769531 203.828125 288.710938 C 201.113281 289.027344 198.386719 289.210938 195.652344 289.332031 C 190.375 289.550781 185.046875 289.316406 179.742188 288.753906 L 179.679688 288.761719 L 179.613281 288.769531 C 152.832031 289.253906 123.714844 282.027344 101.703125 269.457031 C 82.492188 258.460938 58.835938 237.902344 55.023438 202.207031 C 52.578125 181.085938 56.847656 156.371094 66.679688 134.480469 C 68.949219 129.765625 71.722656 125.453125 74.8125 121.625 C 78.1875 117.4375 81.898438 113.863281 86.1875 110.75 C 89.984375 107.953125 94.226562 105.5625 99.019531 103.4375 C 106.546875 101.1875 114.191406 98.796875 121.582031 96.5 C 148.25 88.238281 175.726562 79.617188 203.757812 76.367188 M 203.609375 75.078125 C 167.566406 79.253906 133.171875 92.015625 98.617188 102.238281 C 94.011719 104.277344 89.640625 106.683594 85.476562 109.71875 C 81.3125 112.753906 77.417969 116.414062 73.804688 120.824219 C 70.484375 124.941406 67.71875 129.320312 65.5 133.898438 C 56.027344 154.960938 51.113281 179.75 53.734375 202.359375 C 60.566406 266.371094 130.839844 290.953125 179.5 290.027344 C 184.9375 290.640625 190.324219 290.800781 195.609375 290.644531 C 198.40625 290.519531 201.136719 290.332031 203.914062 290.011719 C 248.09375 284.890625 285.925781 252.683594 306.746094 206.410156 C 310.261719 199.457031 312.820312 192.746094 314.6875 186.246094 C 319.628906 161.125 320.875 133.488281 311.0625 109.816406 C 309.433594 105.945312 307.4375 102.25 305.121094 98.65625 C 287.550781 71.890625 257.171875 74.105469 231.476562 73.808594 C 222.085938 73.523438 212.78125 74.011719 203.609375 75.078125 Z M 203.609375 75.078125 " fill-opacity="1" fill-rule="nonzero"/></g></g></g><g fill="#181818" fill-opacity="1"><g transform="translate(123.372286, 208.268965)"><g><path d="M 11.203125 -46.765625 L 3.640625 -47.671875 L 3.640625 -52.015625 L 25.484375 -52.015625 L 33.8125 -21.90625 L 35.765625 -13.71875 L 37.453125 -21.90625 L 45.703125 -52.015625 L 67.34375 -52.015625 L 67.34375 -47.671875 L 59.703125 -46.765625 L 65.3125 -4.96875 L 70.984375 -4.203125 L 70.984375 0 L 48.65625 0 L 48.65625 -4.203125 L 54.8125 -4.90625 L 51.734375 -35.5625 L 50.40625 -48.375 L 47.8125 -37.59375 L 37.65625 -2.171875 L 30.234375 -2.171875 L 19.875 -35.765625 L 16.3125 -48.375 L 15.265625 -35.5625 L 12.59375 -4.90625 L 19.671875 -4.203125 L 19.671875 0 L 0.203125 0 L 0.203125 -4.203125 L 6.09375 -4.90625 Z M 11.203125 -46.765625 "/></g></g></g><g fill="#181818" fill-opacity="1"><g transform="translate(202.258386, 208.268965)"><g><path d="M 8.265625 -46.765625 L 2.796875 -47.671875 L 2.796875 -52.015625 L 13.234375 -52.015625 C 14.816406 -52.015625 16.867188 -52.109375 19.390625 -52.296875 C 19.992188 -52.335938 20.710938 -52.378906 21.546875 -52.421875 C 22.390625 -52.472656 23.375 -52.5 24.5 -52.5 C 31.539062 -52.5 36.472656 -51.503906 39.296875 -49.515625 C 42.128906 -47.535156 43.546875 -44.585938 43.546875 -40.671875 C 43.546875 -37.210938 42.503906 -34.328125 40.421875 -32.015625 C 38.347656 -29.710938 35.628906 -28.304688 32.265625 -27.796875 C 36.890625 -27.835938 40.519531 -26.785156 43.15625 -24.640625 C 45.789062 -22.492188 47.109375 -19.507812 47.109375 -15.6875 C 47.109375 -10.832031 45.40625 -6.929688 42 -3.984375 C 38.59375 -1.046875 32.898438 0.421875 24.921875 0.421875 C 22.816406 0.421875 20.878906 0.347656 19.109375 0.203125 C 18.640625 0.203125 17.84375 0.164062 16.71875 0.09375 C 15.601562 0.03125 14.460938 0 13.296875 0 L 2.734375 0 L 2.734375 -4.203125 L 8.265625 -4.90625 Z M 18.40625 -29.328125 C 18.925781 -29.285156 19.976562 -29.265625 21.5625 -29.265625 L 24.84375 -29.265625 C 27.695312 -29.265625 29.820312 -30.148438 31.21875 -31.921875 C 32.613281 -33.691406 33.3125 -36.1875 33.3125 -39.40625 C 33.3125 -42.488281 32.585938 -44.726562 31.140625 -46.125 C 29.703125 -47.53125 27.300781 -48.234375 23.9375 -48.234375 C 23.050781 -48.234375 21.207031 -48.140625 18.40625 -47.953125 Z M 18.40625 -4.625 C 19.476562 -4.195312 21.53125 -3.984375 24.5625 -3.984375 C 28.53125 -3.984375 31.398438 -4.914062 33.171875 -6.78125 C 34.953125 -8.65625 35.84375 -11.363281 35.84375 -14.90625 C 35.84375 -18.3125 35.035156 -20.75 33.421875 -22.21875 C 31.816406 -23.695312 29.265625 -24.4375 25.765625 -24.4375 C 21.835938 -24.4375 19.382812 -24.390625 18.40625 -24.296875 Z M 18.40625 -4.625 "/></g></g></g></svg>